<?xml version="1.0" encoding="UTF-8"?>
<svg version="1.1" xmlns="http://www.w3.org/2000/svg" width="25" height="25">
<path d="M0 0 C8.25 0 16.5 0 25 0 C25 8.25 25 16.5 25 25 C16.75 25 8.5 25 0 25 C0 16.75 0 8.5 0 0 Z " fill="#4EAB3A" transform="translate(0,0)"/>
<path d="M0 0 C1.09248047 0.01160156 1.09248047 0.01160156 2.20703125 0.0234375 C2.92761719 0.01570312 3.64820313 0.00796875 4.390625 0 C8.18702194 0.01398305 11.1148394 0.15110151 14.33203125 2.2734375 C13.33203125 3.2734375 13.33203125 3.2734375 11.484375 3.37109375 C9.43359375 3.33854167 7.3828125 3.30598958 5.33203125 3.2734375 C5.00203125 4.9234375 4.67203125 6.5734375 4.33203125 8.2734375 C4.99203125 8.2734375 5.65203125 8.2734375 6.33203125 8.2734375 C6.66203125 7.2834375 6.99203125 6.2934375 7.33203125 5.2734375 C7.33203125 5.9334375 7.33203125 6.5934375 7.33203125 7.2734375 C9.80703125 7.7684375 9.80703125 7.7684375 12.33203125 8.2734375 C12.00203125 8.9334375 11.67203125 9.5934375 11.33203125 10.2734375 C10.01203125 10.2734375 8.69203125 10.2734375 7.33203125 10.2734375 C7.66203125 12.5834375 7.99203125 14.8934375 8.33203125 17.2734375 C9.98203125 17.6034375 11.63203125 17.9334375 13.33203125 18.2734375 C12.08203125 19.8359375 12.08203125 19.8359375 10.33203125 21.2734375 C8.99207064 20.96783245 7.65968328 20.62872466 6.33203125 20.2734375 C4.58316144 20.20719243 2.83200377 20.18791155 1.08203125 20.2109375 C-0.25601562 20.22447266 -0.25601562 20.22447266 -1.62109375 20.23828125 C-2.2965625 20.24988281 -2.97203125 20.26148437 -3.66796875 20.2734375 C-3.33796875 19.6134375 -3.00796875 18.9534375 -2.66796875 18.2734375 C0.39453125 17.6484375 0.39453125 17.6484375 3.33203125 17.2734375 C3.33203125 13.3134375 3.33203125 9.3534375 3.33203125 5.2734375 C2.67203125 5.2734375 2.01203125 5.2734375 1.33203125 5.2734375 C1.33203125 8.9034375 1.33203125 12.5334375 1.33203125 16.2734375 C0.67203125 16.2734375 0.01203125 16.2734375 -0.66796875 16.2734375 C-0.66796875 14.6234375 -0.66796875 12.9734375 -0.66796875 11.2734375 C-1.98796875 11.6034375 -3.30796875 11.9334375 -4.66796875 12.2734375 C-4.33796875 11.2834375 -4.00796875 10.2934375 -3.66796875 9.2734375 C-2.67796875 9.2734375 -1.68796875 9.2734375 -0.66796875 9.2734375 C-0.66796875 7.9534375 -0.66796875 6.6334375 -0.66796875 5.2734375 C-2.64796875 5.6034375 -4.62796875 5.9334375 -6.66796875 6.2734375 C-7.29296875 4.3984375 -7.29296875 4.3984375 -7.66796875 2.2734375 C-5.12644796 -0.26808329 -3.47035892 0.01282942 0 0 Z " fill="#2D5F22" transform="translate(8.66796875,2.7265625)"/>
<path d="M0 0 C-1.25 1.5625 -1.25 1.5625 -3 3 C-4.33996061 2.69439495 -5.67234797 2.35528716 -7 2 C-8.74886981 1.93375493 -10.50002748 1.91447405 -12.25 1.9375 C-13.58804687 1.95103516 -13.58804687 1.95103516 -14.953125 1.96484375 C-15.62859375 1.97644531 -16.3040625 1.98804688 -17 2 C-14.37009616 -3.25980767 -4.83213799 -1.2080345 0 0 Z " fill="#0E1B0B" transform="translate(22,21)"/>
<path d="M0 0 C0.66 0.33 1.32 0.66 2 1 C1.67 4.63 1.34 8.26 1 12 C0.34 12 -0.32 12 -1 12 C-1 10.35 -1 8.7 -1 7 C-2.32 7.33 -3.64 7.66 -5 8 C-4.67 7.01 -4.34 6.02 -4 5 C-3.01 5 -2.02 5 -1 5 C-0.67 3.35 -0.34 1.7 0 0 Z " fill="#070E05" transform="translate(9,7)"/>
<path d="M0 0 C2.1640625 0.0234375 2.1640625 0.0234375 4.625 0.375 C5.85089844 0.54128906 5.85089844 0.54128906 7.1015625 0.7109375 C7.72804688 0.80632813 8.35453125 0.90171875 9 1 C8.67 1.66 8.34 2.32 8 3 C5.36 2.67 2.72 2.34 0 2 C0.33 3.32 0.66 4.64 1 6 C0.34 6 -0.32 6 -1 6 C-1.625 4.125 -1.625 4.125 -2 2 C-1.34 1.34 -0.68 0.68 0 0 Z " fill="#0D190A" transform="translate(3,3)"/>
<path d="M0 0 C2.33944736 0.28730055 4.6739143 0.61936779 7 1 C6.67 1.66 6.34 2.32 6 3 C4.35 3 2.7 3 1 3 C1 3.99 1 4.98 1 6 C0.34 6 -0.32 6 -1 6 C-1.042721 4.33388095 -1.04063832 2.66617115 -1 1 C-0.67 0.67 -0.34 0.34 0 0 Z " fill="#499E37" transform="translate(14,5)"/>
<path d="M0 0 C-0.33 0.66 -0.66 1.32 -1 2 C-3.97 2 -6.94 2 -10 2 C-10 1.34 -10 0.68 -10 0 C-6.7169902 -1.6415049 -3.57454967 -0.51888624 0 0 Z " fill="#0E1B0B" transform="translate(23,4)"/>
</svg>
